:FULLY-SPECIFIED
:FORCE-ALL-JOINTS-BE-3DOF
:DEGREES
883
root 3.71517 16.3859 31.2606 -12.3735 24.3259 0.0733184
lfemur -14.9552 16.7514 -21.5616
ltibia 44.4179 -0 0
lfoot -9.06623 -22.9551 -0.799214
ltoes 18.014 -0 0
rfemur -56.822 -10.0082 1.17259
rtibia 76.7035 -0 0
rfoot 12.6926 -8.08664 -0.0333195
rtoes 20.7745 -0 0
lowerback 11.4801 -3.18911 -6.09343
upperback 3.41761 -4.94381 -1.84709
thorax -2.88772 -2.44401 1.82892
lowerneck -6.88233 -5.19534 0.294876
upperneck 7.94496 -7.41703 4.23979
head 3.98418 -3.4419 0.963608
lclavicle 2.07533e-14 -9.69608e-15 2.59686e-31
lhumerus -38.0579 -32.7487 90.1356
lradius 58.5406 -0 0
lwrist 19.2716 0 0
lhand 20.0065 9.74452 0.547528
lfingers 7.12502 -0 0
lthumb 44.4579 32.8485 0.285808
rclavicle 2.07533e-14 -9.69608e-15 2.59686e-31
rhumerus -53.5722 -1.58205 -60.9174
rradius 77.0701 -0 0
rwrist -2.73649 0 0
rhand -2.52207 -19.9845 1.61335
rfingers 7.12502 -0 0
rthumb 23.0978 -47.9098 1.78699
884
root 3.68953 16.3751 31.336 -12.0189 24.4841 0.133542
lfemur -15.2901 17.3063 -21.5253
ltibia 44.8787 -0 0
lfoot -9.36709 -22.3182 -0.830661
ltoes 17.6559 -0 0
rfemur -56.0567 -10.3742 0.998208
rtibia 77.3024 -0 0
rfoot 12.6641 -8.67319 -0.00291141
rtoes 21.9677 -0 0
lowerback 11.2625 -3.23241 -6.08938
upperback 3.32534 -4.98874 -1.88031
thorax -2.86699 -2.46652 1.78717
lowerneck -6.90046 -5.2896 0.176677
upperneck 7.86046 -7.53335 4.29285
head 3.96809 -3.50152 0.995807
lclavicle 2.05903e-14 -8.94265e-15 2.92019e-31
lhumerus -38.4215 -33.2815 90.8986
lradius 58.7024 -0 0
lwrist 19.0089 0 0
lhand 20.6731 10.0894 0.545068
lfingers 7.12502 -0 0
lthumb 45.0789 32.9629 0.288895
rclavicle 2.05903e-14 -8.94265e-15 2.92019e-31
rhumerus -53.4227 -1.40485 -61.9271
rradius 78.7525 -0 0
rwrist -3.00432 0 0
rhand -1.78755 -19.3138 1.64387
rfingers 7.12502 -0 0
rthumb 23.8024 -47.1315 1.82011
885
root 3.66464 16.3649 31.4075 -11.6424 24.6193 0.192978
lfemur -15.6468 17.8551 -21.472
ltibia 45.3265 -0 0
lfoot -9.67345 -21.6342 -0.858013
ltoes 17.2918 -0 0
rfemur -55.2214 -10.7212 0.823993
rtibia 77.8652 -0 0
rfoot 12.6058 -9.27602 0.028714
rtoes 23.1469 -0 0
lowerback 11.0294 -3.26904 -6.07403
upperback 3.22762 -5.02267 -1.9122
thorax -2.84254 -2.48361 1.74016
lowerneck -6.91765 -5.38272 0.0584889
upperneck 7.76778 -7.64751 4.34508
head 3.94915 -3.56038 1.02779
lclavicle 2.04067e-14 -8.16469e-15 3.23752e-31
lhumerus -38.8187 -33.7988 91.6907
lradius 58.8621 -0 0
lwrist 18.7393 0 0
lhand 21.3322 10.4382 0.538947
lfingers 7.12502 -0 0
lthumb 45.6926 33.0813 0.290243
rclavicle 2.04067e-14 -8.16469e-15 3.23752e-31
rhumerus -53.2372 -1.19004 -63.0021
rradius 80.4635 -0 0
rwrist -3.27808 0 0
rhand -1.03984 -18.6297 1.66493
rfingers 7.12502 -0 0
rthumb 24.5198 -46.3383 1.84272
886
root 3.64076 16.3553 31.4749 -11.244 24.7302 0.251241
lfemur -16.0254 18.3968 -21.4011
ltibia 45.7599 -0 0
lfoot -9.98494 -20.9024 -0.880718
ltoes 16.922 -0 0
rfemur -54.3149 -11.0476 0.6503
rtibia 78.3894 -0 0
rfoot 12.5163 -9.8947 0.0610611
rtoes 24.309 -0 0
lowerback 10.7804 -3.29856 -6.04694
upperback 3.1244 -5.04508 -1.94264
thorax -2.81429 -2.495 1.68775
lowerneck -6.93386 -5.4745 -0.0594644
upperneck 7.66678 -7.7592 4.39636
head 3.92727 -3.61832 1.0595
lclavicle 2.02021e-14 -7.36262e-15 3.54356e-31
lhumerus -39.25 -34.2983 92.5117
lradius 59.0194 -0 0
lwrist 18.4631 0 0
lhand 21.9822 10.7905 0.529203
lfingers 7.12502 -0 0
lthumb 46.2975 33.2034 0.289791
rclavicle 2.02021e-14 -7.36262e-15 3.54356e-31
rhumerus -53.016 -0.935171 -64.1428
rradius 82.2011 -0 0
rwrist -3.55749 0 0
rhand -0.279941 -17.933 1.67596
rfingers 7.12502 -0 0
rthumb 25.249 -45.5313 1.8542
887
root 3.61812 16.3465 31.538 -10.8236 24.8156 0.307896
lfemur -16.4259 18.9303 -21.312
ltibia 46.1775 -0 0
lfoot -10.3011 -20.1222 -0.898208
ltoes 16.5469 -0 0
rfemur -53.3358 -11.3517 0.477597
rtibia 78.8724 -0 0
rfoot 12.3947 -10.5288 0.093584
rtoes 25.4513 -0 0
lowerback 10.5155 -3.32053 -6.00772
upperback 3.01562 -5.0554 -1.97156
thorax -2.7821 -2.50043 1.62982
lowerneck -6.94902 -5.56468 -0.176959
upperneck 7.55727 -7.86809 4.44656
head 3.90237 -3.67521 1.09085
lclavicle 1.9976e-14 -6.53687e-15 3.83263e-31
lhumerus -39.7158 -34.7778 93.3613
lradius 59.1738 -0 0
lwrist 18.1804 0 0
lhand 22.6214 11.1456 0.515909
lfingers 7.12502 -0 0
lthumb 46.892 33.3293 0.287488
rclavicle 1.9976e-14 -6.53687e-15 3.83263e-31
rhumerus -52.7593 -0.637623 -65.3495
rradius 83.9632 -0 0
rwrist -3.84228 0 0
rhand 0.49113 -17.2247 1.67646
rfingers 7.12502 -0 0
rthumb 25.989 -44.7116 1.854
888
root 3.59698 16.3384 31.5966 -10.3811 24.8742 0.362457
lfemur -16.8484 19.4544 -21.2041
ltibia 46.5777 -0 0
lfoot -10.6216 -19.293 -0.909911
ltoes 16.1672 -0 0
rfemur -52.283 -11.632 0.306476
rtibia 79.3115 -0 0
rfoot 12.2396 -11.1779 0.125687
rtoes 26.5709 -0 0
lowerback 10.2344 -3.33449 -5.95595
upperback 2.90123 -5.05312 -1.99887
thorax -2.7459 -2.49961 1.56623
lowerneck -6.96308 -5.65304 -0.293772
upperneck 7.43909 -7.97387 4.49556
head 3.87437 -3.73088 1.12179
lclavicle 1.97279e-14 -5.68788e-15 4.09867e-31
lhumerus -40.2163 -35.235 94.2391
lradius 59.3249 -0 0
lwrist 17.8916 0 0
lhand 23.2482 11.503 0.499169
lfingers 7.12502 -0 0
lthumb 47.4748 33.4589 0.283293
rclavicle 1.97279e-14 -5.68788e-15 4.09867e-31
rhumerus -52.4676 -0.294647 -66.6224
rradius 85.7477 -0 0
rwrist -4.1322 0 0
rhand 1.27235 -16.5057 1.66595
rfingers 7.12502 -0 0
rthumb 26.7387 -43.8802 1.8416
889
root 3.57759 16.3312 31.6502 -9.9167 24.9049 0.414379
lfemur -17.293 19.9682 -21.0766
ltibia 46.9594 -0 0
lfoot -10.9459 -18.4139 -0.915244
ltoes 15.783 -0 0
rfemur -51.1552 -11.8867 0.13767
rtibia 79.7041 -0 0
rfoot 12.0499 -11.8415 0.156725
rtoes 27.6649 -0 0
lowerback 9.93682 -3.33996 -5.89124
upperback 2.78116 -5.03768 -2.02449
thorax -2.70556 -2.49227 1.49685
lowerneck -6.97597 -5.73935 -0.409679
upperneck 7.31209 -8.07622 4.54322
head 3.84317 -3.78519 1.15224
lclavicle 1.94571e-14 -4.81609e-15 4.33521e-31
lhumerus -40.7517 -35.6677 95.1444
lradius 59.4724 -0 0
lwrist 17.5967 0 0
lhand 23.8611 11.8623 0.479121
lfingers 7.12502 -0 0
lthumb 48.0442 33.5921 0.277175
rclavicle 1.94571e-14 -4.81609e-15 4.33521e-31
rhumerus -52.1418 0.0966436 -67.9615
rradius 87.5528 -0 0
rwrist -4.42696 0 0
rhand 2.06269 -15.7768 1.64399
rfingers 7.12502 -0 0
rthumb 27.4971 -43.0382 1.81654
890
root 3.56018 16.325 31.6989 -9.43026 24.9063 0.463066
lfemur -17.7597 20.4706 -20.929
ltibia 47.3209 -0 0
lfoot -11.2736 -17.4844 -0.913621
ltoes 15.395 -0 0
rfemur -49.9514 -12.1144 -0.0279408
rtibia 80.0475 -0 0
rfoot 11.8244 -12.5193 0.186001
rtoes 28.7304 -0 0
lowerback 9.62263 -3.33644 -5.8132
upperback 2.65538 -5.00854 -2.04837
thorax -2.661 -2.47812 1.42155
lowerneck -6.98765 -5.82338 -0.524458
upperneck 7.17609 -8.17483 4.58941
head 3.80871 -3.838 1.18215
lclavicle 1.91632e-14 -3.92192e-15 4.5354e-31
lhumerus -41.3218 -36.0735 96.0765
lradius 59.6158 -0 0
lwrist 17.2961 0 0
lhand 24.4584 12.2229 0.455934
lfingers 7.12502 -0 0
lthumb 48.5988 33.7287 0.269114
rclavicle 1.91632e-14 -3.92192e-15 4.5354e-31
rhumerus -51.7828 0.539267 -69.3668
rradius 89.3762 -0 0
rwrist -4.7263 0 0
rhand 2.86109 -15.0391 1.61019
rfingers 7.12502 -0 0
rthumb 28.2632 -42.1867 1.7784
891
root 3.545 16.3199 31.7422 -8.92184 24.8773 0.507857
lfemur -18.2486 20.9606 -20.7604
ltibia 47.6609 -0 0
lfoot -11.6041 -16.5038 -0.904451
ltoes 15.0035 -0 0
rfemur -48.6705 -12.3135 -0.18931
rtibia 80.3391 -0 0
rfoot 11.5621 -13.2108 0.212768
rtoes 29.7646 -0 0
lowerback 9.29161 -3.32344 -5.72147
upperback 2.52382 -4.96515 -2.07042
thorax -2.61211 -2.45689 1.34021
lowerneck -6.99806 -5.90488 -0.637883
upperneck 7.03095 -8.26938 4.634
head 3.77089 -3.88915 1.21143
lclavicle 1.88456e-14 -3.0058e-15 4.69203e-31
lhumerus -41.9263 -36.4501 97.0344
lradius 59.7548 -0 0
lwrist 16.9899 0 0
lhand 25.0385 12.5843 0.429811
lfingers 7.12502 -0 0
lthumb 49.1371 33.8688 0.259101
rclavicle 1.88456e-14 -3.0058e-15 4.69203e-31
rhumerus -51.392 1.03636 -70.8385
rradius 91.216 -0 0
rwrist -5.02995 0 0
rhand 3.66651 -14.2935 1.5642
rfingers 7.12502 -0 0
rthumb 29.0358 -41.3267 1.72681
892
root 3.5323 16.3158 31.78 -8.39152 24.8166 0.548037
lfemur -18.7596 21.4372 -20.5702
ltibia 47.9779 -0 0
lfoot -11.937 -15.4715 -0.887145
ltoes 14.6089 -0 0
rfemur -47.3114 -12.4825 -0.345216
rtibia 80.5763 -0 0
rfoot 11.2617 -13.9155 0.236229
rtoes 30.7646 -0 0
lowerback 8.94357 -3.30042 -5.61569
upperback 2.38644 -4.90698 -2.0906
thorax -2.55881 -2.42829 1.25271
lowerneck -7.00714 -5.98364 -0.749732
upperneck 6.8765 -8.35957 4.67684
head 3.72963 -3.9385 1.24002
lclavicle 1.85038e-14 -2.06818e-15 4.79744e-31
lhumerus -42.5647 -36.7952 98.0169
lradius 59.8889 -0 0
lwrist 16.6785 0 0
lhand 25.5998 12.946 0.400984
lfingers 7.12502 -0 0
lthumb 49.6576 34.0123 0.247139
rclavicle 1.85038e-14 -2.06818e-15 4.79744e-31
rhumerus -50.971 1.59116 -72.3762
rradius 93.0701 -0 0
rwrist -5.33764 0 0
rhand 4.47786 -13.5408 1.50571
rfingers 7.12502 -0 0
rthumb 29.814 -40.4595 1.66146
893
root 3.52233 16.313 31.8119 -7.83938 24.7231 0.582828
lfemur -19.2929 21.8997 -20.3574
ltibia 48.2707 -0 0
lfoot -12.2715 -14.3867 -0.861115
ltoes 14.2118 -0 0
rfemur -45.8732 -12.6201 -0.494254
rtibia 80.7565 -0 0
rfoot 10.9221 -14.633 0.255539
rtoes 31.7276 -0 0
lowerback 8.57833 -3.26685 -5.49553
upperback 2.24318 -4.83347 -2.10885
thorax -2.50101 -2.39204 1.15892
lowerneck -7.01486 -6.05941 -0.859781
upperneck 6.71258 -8.44509 4.71779
head 3.68485 -3.98591 1.26786
lclavicle 1.81373e-14 -1.10948e-15 4.84363e-31
lhumerus -43.2363 -37.1064 99.0227
lradius 60.0178 -0 0
lwrist 16.3619 0 0
lhand 26.1407 13.3074 0.369715
lfingers 7.12502 -0 0
lthumb 50.1588 34.159 0.233241
rclavicle 1.81373e-14 -1.10948e-15 4.84363e-31
rhumerus -50.5217 2.20699 -73.9798
rradius 94.9364 -0 0
rwrist -5.6491 0 0
rhand 5.29409 -12.7821 1.43447
rfingers 7.12502 -0 0
rthumb 30.5965 -39.586 1.58208
894
root 3.51533 16.3116 31.8379 -7.2655 24.5955 0.611389
lfemur -19.8483 22.347 -20.1212
ltibia 48.5376 -0 0
lfoot -12.6072 -13.2489 -0.825777
ltoes 13.8125 -0 0
rfemur -44.3549 -12.7248 -0.634819
rtibia 80.877 -0 0
rfoot 10.5422 -15.3629 0.2698
rtoes 32.6506 -0 0
lowerback 8.19573 -3.22216 -5.36065
upperback 2.09401 -4.74408 -2.12514
thorax -2.43863 -2.34784 1.05873
lowerneck -7.02115 -6.13196 -0.967806
upperneck 6.53903 -8.52561 4.75671
head 3.63646 -4.03122 1.29487
lclavicle 1.77456e-14 -1.30129e-16 4.82216e-31
lhumerus -43.94 -37.3814 100.05
lradius 60.1411 -0 0
lwrist 16.0404 0 0
lhand 26.6597 13.6682 0.336298
lfingers 7.12502 -0 0
lthumb 50.6391 34.309 0.217435
rclavicle 1.77456e-14 -1.30129e-16 4.82216e-31
rhumerus -50.0463 2.88727 -75.6492
rradius 96.813 -0 0
rwrist -5.96407 0 0
rhand 6.11411 -12.0183 1.35028
rfingers 7.12502 -0 0
rthumb 31.3824 -38.7074 1.48848
